<?xml version="1.0" encoding="UTF-8" standalone="no"?>
<!DOCTYPE svg PUBLIC "-//W3C//DTD SVG 1.1//EN" "http://www.w3.org/Graphics/SVG/1.1/DTD/svg11.dtd">
<svg version="1.1" xmlns="http://www.w3.org/2000/svg" preserveAspectRatio="xMidYMid meet" viewBox="0 0 2100 325" width="2100" height="325">
    <defs>
        <path d="M300 325L320.2 325L320.2 325L200 325L0 0L0 0L566.71 0L566.71 0L500 0L500 0.01L500 0.01L300 325ZM323.49 125L357.31 68.63L241.18 68.63L200 0L98.49 0L173.49 125L248.49 250L248.49 250L323.49 125Z" id="aikYvx7fd"></path>
        <path d="M1500 325L1500 325L1519.01 325L1519.01 325L1500 325ZM1557.85 68.5L1400 325L1300 325L1457.84 68.5L1357.85 68.5L1400 0L1400 0L1099.48 0L1099.48 0L1049.22 81.68L1200 0L1200 0.01L1300 0.01L1267.02 53.6L1045 173.86L1091.5 325L1000 325L966.66 216.67L900 325L800 325L1000 0L900 0L900 0.01L900 0L900 0.01L857.85 68.5L657.84 68.5L621.07 128.25L821.08 128.25L778.92 196.75L578.92 196.75L542.15 256.5L742.15 256.5L700 325L322.86 325L322.86 325L400 325L500 162.5L500 162.5L600 0L572.22 0L572.22 0L1700 0L1657.85 68.5L1557.85 68.5Z" id="a4l6uVkfPi"></path>
        <path d="M2100 324.99L2100 325L2166.72 325L2166.72 325L1600 325L1600 325L1800 0L1920.2 0L1920.2 0L1900.01 0L1900.01 0L2100 324.99ZM1841.18 256.37L1957.31 256.37L1923.5 200L1848.49 75L1773.49 200L1698.49 325L1800 325L1800 325L1841.18 256.37Z" id="jeYk65oZx"></path>
    </defs>
    <g>
        <g>
            <g>
                <path d="M300 325L320.2 325L320.2 325L200 325L0 0L0 0L566.71 0L566.71 0L500 0L500 0.01L500 0.01L300 325ZM323.49 125L357.31 68.63L241.18 68.63L200 0L98.49 0L173.49 125L248.49 250L248.49 250L323.49 125Z" fill="#0F0" id="aikYvx7fd"></path>
<!--                <use xlink:href="#aikYvx7fd" opacity="1" fill="#0F0" fill-opacity="1"></use>-->
            </g>
            <g>
                <path d="M1500 325L1500 325L1519.01 325L1519.01 325L1500 325ZM1557.85 68.5L1400 325L1300 325L1457.84 68.5L1357.85 68.5L1400 0L1400 0L1099.48 0L1099.48 0L1049.22 81.68L1200 0L1200 0.01L1300 0.01L1267.02 53.6L1045 173.86L1091.5 325L1000 325L966.66 216.67L900 325L800 325L1000 0L900 0L900 0.01L900 0L900 0.01L857.85 68.5L657.84 68.5L621.07 128.25L821.08 128.25L778.92 196.75L578.92 196.75L542.15 256.5L742.15 256.5L700 325L322.86 325L322.86 325L400 325L500 162.5L500 162.5L600 0L572.22 0L572.22 0L1700 0L1657.85 68.5L1557.85 68.5Z" fill="#0F0" id="a4l6uVkfPi"></path>
<!--                <use xlink:href="#a4l6uVkfPi" opacity="1" fill="#0F0" fill-opacity="1"></use>-->
            </g>
            <g>
                <path d="M2100 324.99L2100 325L2166.72 325L2166.72 325L1600 325L1600 325L1800 0L1920.2 0L1920.2 0L1900.01 0L1900.01 0L2100 324.99ZM1841.18 256.37L1957.31 256.37L1923.5 200L1848.49 75L1773.49 200L1698.49 325L1800 325L1800 325L1841.18 256.37Z" fill="#0F0" id="jeYk65oZx"></path>
<!--                <use xlink:href="#jeYk65oZx" opacity="1" fill="#0F0" fill-opacity="1"></use>-->
            </g>
        </g>
    </g>
</svg>