<?xml version="1.0" encoding="utf-8"?>
<!-- Generator: Adobe Illustrator 16.0.0, SVG Export Plug-In . SVG Version: 6.00 Build 0)  -->
<!DOCTYPE svg PUBLIC "-//W3C//DTD SVG 1.1//EN" "http://www.w3.org/Graphics/SVG/1.1/DTD/svg11.dtd">
<svg version="1.1" id="Layer_1" xmlns="http://www.w3.org/2000/svg" xmlns:xlink="http://www.w3.org/1999/xlink" x="0px" y="0px"
	 width="98.668px" height="29.083px" viewBox="0 0 98.668 29.083" enable-background="new 0 0 98.668 29.083" xml:space="preserve">
<line fill="#00FF00" stroke="#00FF00" stroke-width="0.75" stroke-miterlimit="10" x1="0" y1="0.5" x2="98.668" y2="0.5"/>
<g>
	<path fill="#00FF00" d="M5.471,0.479l3.204,20.952l3.276-20.952h3.204l-4.86,28.188H7.019L2.231,0.479H5.471z"/>
	<path fill="#00FF00" d="M34.451,0.479v3.204h-6.012v8.856h4.248v3.204h-4.248v9.72h6.012v3.204h-9.324V0.479H34.451z"/>
	<path fill="#00FF00" d="M56.195,0.479l-5.256,11.52l5.688,16.668H53.17l-5.04-15.228v15.228h-3.312V0.479h3.312v10.476l4.68-10.476
		H56.195z"/>
	<path fill="#00FF00" d="M75.131,0.479v3.204h-3.168v24.984H68.65V3.683h-3.168V0.479H75.131z"/>
	<path fill="#00FF00" d="M89.135,7.715l-3.204,20.952h-3.204l4.752-28.188h3.275l4.896,28.188h-3.203L89.135,7.715z"/>
</g>
<line fill="#00FF00" stroke="#00FF00" stroke-width="0.75" stroke-miterlimit="10" x1="0" y1="28.667" x2="98.668" y2="28.667"/>
<path fill="#00FF00" stroke="#00FF00" stroke-width="0.75" stroke-miterlimit="10" d="M103.418,19.167"/>
<path fill="#00FF00" stroke="#00FF00" stroke-width="0.75" stroke-miterlimit="10" d="M85.168,19.167"/>
<path fill="#00FF00" stroke="#00FF00" stroke-width="0.75" stroke-miterlimit="10" d="M103.418,23.331"/>
<path fill="#00FF00" stroke="#00FF00" stroke-width="0.75" stroke-miterlimit="10" d="M103.418,15.002"/>
<path fill="#00FF00" stroke="#00FF00" stroke-width="0.75" stroke-miterlimit="10" d="M118.256,18.826"/>
<path fill="#00FF00" stroke="#00FF00" stroke-width="0.75" stroke-miterlimit="10" d="M103.418,15.018"/>
<path fill="#00FF00" stroke="#00FF00" stroke-width="0.75" stroke-miterlimit="10" d="M118.259,19.55"/>
<path fill="#00FF00" stroke="#00FF00" stroke-width="0.75" stroke-miterlimit="10" d="M103.415,23.331"/>
</svg>
